<svg xmlns="http://www.w3.org/2000/svg" viewBox="0 0 64 64" role="img" aria-label="Research Library">
  <defs>
    <linearGradient id="bg" x1="0" y1="0" x2="1" y2="1">
      <stop offset="0" stop-color="#0a0a0a"/>
      <stop offset="1" stop-color="#111827"/>
    </linearGradient>
    <linearGradient id="neon" x1="0" y1="0" x2="1" y2="1">
      <stop offset="0" stop-color="#3b82f6"/>
      <stop offset="0.5" stop-color="#a855f7"/>
      <stop offset="1" stop-color="#22d3ee"/>
    </linearGradient>
    <filter id="glow" x="-50%" y="-50%" width="200%" height="200%">
      <feGaussianBlur stdDeviation="1.8" result="blur"/>
      <feMerge>
        <feMergeNode in="blur"/>
        <feMergeNode in="SourceGraphic"/>
      </feMerge>
    </filter>
  </defs>

  <rect x="2" y="2" width="60" height="60" rx="14" fill="url(#bg)"/>
  <rect x="2" y="2" width="60" height="60" rx="14" fill="none" stroke="#3b82f6" stroke-opacity="0.45"/>

  <g filter="url(#glow)">
    <path d="M32 18c-6-4-13-3.6-18 0v27c5-3.7 12-4.2 18 0 6-4.2 13-3.7 18 0V18c-5-3.6-12-4-18 0Z" fill="none" stroke="url(#neon)" stroke-width="3" stroke-linejoin="round"/>
    <path d="M32 18v27" stroke="url(#neon)" stroke-width="2.6"/>
    <path d="M19 27c4.3-1.9 8-1.8 11 0M34 27c3-1.8 6.7-1.9 11 0" stroke="#22d3ee" stroke-opacity="0.85" stroke-width="1.8" stroke-linecap="round"/>
  </g>
</svg>
